<?xml version="1.0" encoding="UTF-8"?>
<!DOCTYPE svg PUBLIC "-//W3C//DTD SVG 1.1//EN" "http://www.w3.org/Graphics/SVG/1.1/DTD/svg11.dtd">
<svg xmlns="http://www.w3.org/2000/svg" version="1.1" width="232px" height="81px" style="shape-rendering:geometricPrecision; text-rendering:geometricPrecision; image-rendering:optimizeQuality; fill-rule:evenodd; clip-rule:evenodd" xmlns:xlink="http://www.w3.org/1999/xlink">
<g><path style="opacity:0.789" fill="#020101" d="M 82.5,21.5 C 84.1439,21.2865 85.6439,21.6198 87,22.5C 90.9308,31.4591 94.7641,40.4591 98.5,49.5C 96.9547,50.4519 95.288,50.7852 93.5,50.5C 92.969,47.763 92.1356,45.0964 91,42.5C 87.2564,41.374 83.423,41.2073 79.5,42C 78.1667,44.6667 76.8333,47.3333 75.5,50C 74.0563,50.7805 72.723,50.6139 71.5,49.5C 75.5652,40.301 79.2319,30.9677 82.5,21.5 Z M 84.5,28.5 C 86.0057,30.975 87.3391,33.6416 88.5,36.5C 86.2573,37.4742 83.924,37.8076 81.5,37.5C 82.2134,34.4061 83.2134,31.4061 84.5,28.5 Z"/></g>
<g><path style="opacity:0.692" fill="#000000" d="M 142.5,21.5 C 144.167,21.5 145.833,21.5 147.5,21.5C 147.5,31.1667 147.5,40.8333 147.5,50.5C 145.833,50.5 144.167,50.5 142.5,50.5C 142.5,40.8333 142.5,31.1667 142.5,21.5 Z"/></g>
<g><path style="opacity:0.708" fill="#020101" d="M 149.5,21.5 C 151.167,21.5 152.833,21.5 154.5,21.5C 154.5,31.1667 154.5,40.8333 154.5,50.5C 152.833,50.5 151.167,50.5 149.5,50.5C 149.5,40.8333 149.5,31.1667 149.5,21.5 Z"/></g>
<g><path style="opacity:0.756" fill="#020100" d="M 107.5,29.5 C 118.067,30.6161 121.567,36.2827 118,46.5C 114.345,50.9992 110.012,51.9992 105,49.5C 104.503,52.146 104.336,54.8127 104.5,57.5C 102.833,57.5 101.167,57.5 99.5,57.5C 99.5,48.5 99.5,39.5 99.5,30.5C 101.467,30.2606 103.301,30.5939 105,31.5C 105.995,30.9341 106.828,30.2674 107.5,29.5 Z M 107.5,33.5 C 110.368,33.085 112.535,34.085 114,36.5C 115.759,41.6799 114.259,45.3465 109.5,47.5C 104.741,45.3465 103.241,41.6799 105,36.5C 106.045,35.6266 106.878,34.6266 107.5,33.5 Z"/></g>
<g><path style="opacity:0.768" fill="#020100" d="M 127.5,29.5 C 138.495,29.3398 142.662,34.6732 140,45.5C 134.936,52.0235 129.269,52.6901 123,47.5C 118.884,40.0265 120.384,34.0265 127.5,29.5 Z M 128.5,33.5 C 136.266,34.3623 138.266,38.3623 134.5,45.5C 130.902,48.2918 128.069,47.6251 126,43.5C 124.861,39.5789 125.695,36.2456 128.5,33.5 Z"/></g>
<g><path style="opacity:0.783" fill="#020100" d="M 163.5,29.5 C 168.814,28.7397 172.647,30.7397 175,35.5C 177.647,44.2189 174.647,49.5523 166,51.5C 156.445,48.6439 153.778,42.6439 158,33.5C 159.5,31.5313 161.333,30.198 163.5,29.5 Z M 163.5,33.5 C 170.063,33.5886 172.563,36.922 171,43.5C 167.667,48.8333 164.333,48.8333 161,43.5C 160.024,39.673 160.857,36.3396 163.5,33.5 Z"/></g>
<g><path style="opacity:0.914" fill="#f6f38b" d="M 55.5,38.5 C 57.2646,37.5386 59.2646,37.2053 61.5,37.5C 61.5,35.8333 61.5,34.1667 61.5,32.5C 60.1667,32.5 58.8333,32.5 57.5,32.5C 58.6353,30.9122 59.9686,30.5788 61.5,31.5C 64.2451,38.4096 62.2451,40.7429 55.5,38.5 Z"/></g>
<g><path style="opacity:1" fill="#f7f86e" d="M 28.5,34.5 C 28.5,35.8333 28.5,37.1667 28.5,38.5C 30.8333,38.5 33.1667,38.5 35.5,38.5C 33.0204,40.117 30.3537,40.4503 27.5,39.5C 25.9907,37.38 26.324,35.7133 28.5,34.5 Z"/></g>
<g><path style="opacity:0.992" fill="#f6f751" d="M 51.5,33.5 C 53.5648,33.4828 55.5648,33.1495 57.5,32.5C 58.8333,32.5 60.1667,32.5 61.5,32.5C 61.5,34.1667 61.5,35.8333 61.5,37.5C 59.2646,37.2053 57.2646,37.5386 55.5,38.5C 54.3915,39.29 53.0581,39.79 51.5,40C 54.6612,41.4131 57.6612,43.0797 60.5,45C 59.6538,47.1796 58.1538,48.6796 56,49.5C 52.0875,47.2044 48.5875,44.7044 45.5,42C 47.0335,45.6012 48.3669,49.2679 49.5,53C 48.9056,53.4643 48.2389,53.631 47.5,53.5C 46.1667,53.5 44.8333,53.5 43.5,53.5C 43.8168,49.2984 43.4834,45.2984 42.5,41.5C 40.38,43.6163 38.5467,46.6163 37,50.5C 33.9579,51.9865 32.1246,50.9865 31.5,47.5C 32.8979,44.4435 34.8979,41.7769 37.5,39.5C 37.0431,38.7025 36.3764,38.3691 35.5,38.5C 33.1667,38.5 30.8333,38.5 28.5,38.5C 28.5,37.1667 28.5,35.8333 28.5,34.5C 31.6414,33.6787 34.9748,33.1787 38.5,33C 35.672,30.7519 32.672,28.7519 29.5,27C 30.3333,24.8333 31.8333,23.3333 34,22.5C 36.4794,25.069 39.146,27.4023 42,29.5C 41.2174,25.6079 40.7174,21.6079 40.5,17.5C 42.7925,17.2436 44.9592,17.5769 47,18.5C 47.3333,22.8333 47.6667,27.1667 48,31.5C 48.948,27.5478 50.7813,24.0478 53.5,21C 56.7927,21.2975 58.2927,23.1309 58,26.5C 55.6278,28.7032 53.4611,31.0365 51.5,33.5 Z M 43.5,38.5 C 43.272,36.6453 43.9387,35.8119 45.5,36C 44.9341,36.9947 44.2674,37.828 43.5,38.5 Z M 51.5,33.5 C 51.4827,35.0281 50.816,35.5281 49.5,35C 50.0442,34.2828 50.7109,33.7828 51.5,33.5 Z"/></g>
<g><path style="opacity:0.486" fill="#eff185" d="M 42.5,41.5 C 43.4834,45.2984 43.8168,49.2984 43.5,53.5C 44.8333,53.5 46.1667,53.5 47.5,53.5C 46.0813,54.4511 44.4147,54.7845 42.5,54.5C 42.5,50.1667 42.5,45.8333 42.5,41.5 Z"/></g>
</svg>
