<?xml version="1.0" encoding="UTF-8"?>
<!DOCTYPE svg PUBLIC "-//W3C//DTD SVG 1.1//EN" "http://www.w3.org/Graphics/SVG/1.1/DTD/svg11.dtd">
<svg xmlns="http://www.w3.org/2000/svg" version="1.1" width="694px" height="219px" style="shape-rendering:geometricPrecision; text-rendering:geometricPrecision; image-rendering:optimizeQuality; fill-rule:evenodd; clip-rule:evenodd" xmlns:xlink="http://www.w3.org/1999/xlink">
<g><path style="opacity:1" fill="#fdfdfd" d="M -0.5,-0.5 C 138.5,-0.5 277.5,-0.5 416.5,-0.5C 416.534,42.5036 416.2,85.5036 415.5,128.5C 414.503,145.325 414.17,162.325 414.5,179.5C 425.014,179.828 435.347,179.494 445.5,178.5C 446.079,118.832 446.746,59.1656 447.5,-0.5C 529.5,-0.5 611.5,-0.5 693.5,-0.5C 693.5,72.5 693.5,145.5 693.5,218.5C 462.167,218.5 230.833,218.5 -0.5,218.5C -0.5,145.5 -0.5,72.5 -0.5,-0.5 Z"/></g>
<g><path style="opacity:1" fill="#020202" d="M 416.5,-0.5 C 426.833,-0.5 437.167,-0.5 447.5,-0.5C 446.746,59.1656 446.079,118.832 445.5,178.5C 435.5,178.5 425.5,178.5 415.5,178.5C 415.5,161.833 415.5,145.167 415.5,128.5C 416.2,85.5036 416.534,42.5036 416.5,-0.5 Z"/></g>
<g><path style="opacity:1" fill="#4fbadd" d="M 201.5,35.5 C 198.962,35.4928 196.462,35.1595 194,34.5C 191.914,35.4181 189.747,36.0847 187.5,36.5C 187.67,35.1779 187.337,34.0113 186.5,33C 177.167,32.6667 167.833,32.3333 158.5,32C 156.369,31.4569 154.369,30.6236 152.5,29.5C 153.902,28.1575 153.569,27.3242 151.5,27C 140.896,23.6506 130.229,23.1506 119.5,25.5C 119.299,21.65 117.466,20.65 114,22.5C 106.711,21.8005 99.3773,21.1339 92,20.5C 90.4045,21.4965 88.9045,22.6632 87.5,24C 83.9101,24.3106 80.5767,25.144 77.5,26.5C 75.2362,27.2186 72.9029,27.552 70.5,27.5C 70.9528,26.5416 71.6195,25.7083 72.5,25C 78.2277,23.1521 83.8944,21.1521 89.5,19C 100.077,16.0892 110.744,15.7559 121.5,18C 135.069,21.1293 148.736,23.796 162.5,26C 175.622,29.1779 188.622,32.3446 201.5,35.5 Z"/></g>
<g><path style="opacity:1" fill="#3ccaf4" d="M 201.5,35.5 C 203.786,35.595 205.786,36.2616 207.5,37.5C 201.472,38.4925 195.639,39.4925 190,40.5C 188.989,40.1081 188.489,39.4415 188.5,38.5C 186.618,39.0933 184.785,39.7599 183,40.5C 180.263,39.3895 177.429,39.2228 174.5,40C 169.752,43.0406 164.752,45.5406 159.5,47.5C 159.628,45.9102 160.295,44.5769 161.5,43.5C 165.635,41.2631 169.635,38.7631 173.5,36C 169.449,35.4823 165.449,35.8157 161.5,37C 155.527,40.2427 149.193,42.4093 142.5,43.5C 139.518,43.1044 136.851,43.7711 134.5,45.5C 127.84,43.2544 120.84,43.0877 113.5,45C 112.382,46.0736 111.382,47.2402 110.5,48.5C 109.28,49.7111 108.113,49.7111 107,48.5C 106.044,49.5786 105.211,50.7453 104.5,52C 99.8339,54.0458 95.1672,56.2124 90.5,58.5C 88.8849,57.846 87.2182,57.346 85.5,57C 92.5886,55.7997 96.2553,51.633 96.5,44.5C 100.823,42.5176 103.156,39.1843 103.5,34.5C 95.5322,33.5793 87.5322,32.9127 79.5,32.5C 79.7413,30.1137 79.0746,28.1137 77.5,26.5C 80.5767,25.144 83.9101,24.3106 87.5,24C 88.9045,22.6632 90.4045,21.4965 92,20.5C 99.3773,21.1339 106.711,21.8005 114,22.5C 117.466,20.65 119.299,21.65 119.5,25.5C 130.229,23.1506 140.896,23.6506 151.5,27C 153.569,27.3242 153.902,28.1575 152.5,29.5C 154.369,30.6236 156.369,31.4569 158.5,32C 167.833,32.3333 177.167,32.6667 186.5,33C 187.337,34.0113 187.67,35.1779 187.5,36.5C 189.747,36.0847 191.914,35.4181 194,34.5C 196.462,35.1595 198.962,35.4928 201.5,35.5 Z"/></g>
<g><path style="opacity:1" fill="#3bd2fb" d="M 77.5,26.5 C 79.0746,28.1137 79.7413,30.1137 79.5,32.5C 87.5322,32.9127 95.5322,33.5793 103.5,34.5C 103.156,39.1843 100.823,42.5176 96.5,44.5C 96.2553,51.633 92.5886,55.7997 85.5,57C 87.2182,57.346 88.8849,57.846 90.5,58.5C 95.1672,56.2124 99.8339,54.0458 104.5,52C 105.211,50.7453 106.044,49.5786 107,48.5C 108.113,49.7111 109.28,49.7111 110.5,48.5C 111.382,47.2402 112.382,46.0736 113.5,45C 120.84,43.0877 127.84,43.2544 134.5,45.5C 136.851,43.7711 139.518,43.1044 142.5,43.5C 142.461,44.5832 142.127,45.5832 141.5,46.5C 135.567,49.467 130.9,53.8003 127.5,59.5C 126.675,60.3857 125.675,60.719 124.5,60.5C 124.852,64.8358 122.852,67.3358 118.5,68C 117.663,69.0113 117.33,70.1779 117.5,71.5C 112.246,70.769 110.079,73.1023 111,78.5C 108.728,79.7906 106.561,80.4573 104.5,80.5C 100.889,90.9437 98.2224,101.61 96.5,112.5C 95.8165,112.137 95.1499,111.804 94.5,111.5C 94.3893,110.883 94.056,110.383 93.5,110C 91.5273,109.505 89.5273,109.338 87.5,109.5C 87.595,101.704 86.7616,101.704 85,109.5C 83.872,107.655 83.372,105.655 83.5,103.5C 81.8762,103.36 80.7096,104.027 80,105.5C 79.6696,102.511 78.8362,99.678 77.5,97C 77.7355,96.1268 78.0688,95.2935 78.5,94.5C 77.7868,92.2241 77.2868,89.8907 77,87.5C 75.5841,93.9257 74.0841,93.9257 72.5,87.5C 70.1667,87.5 67.8333,87.5 65.5,87.5C 64.8333,90.1667 64.1667,92.8333 63.5,95.5C 61.7988,95.9662 60.2988,95.9662 59,95.5C 57.2256,101.961 56.2256,108.628 56,115.5C 55.7811,116.938 55.2811,118.271 54.5,119.5C 53.5745,118.359 52.7412,118.359 52,119.5C 51.5026,122.146 51.3359,124.813 51.5,127.5C 50.1667,127.5 48.8333,127.5 47.5,127.5C 46.3362,124.813 44.5029,122.48 42,120.5C 41.7266,118.899 41.2266,117.399 40.5,116C 37.0885,115.883 34.5885,114.383 33,111.5C 32.3333,112.167 31.6667,112.833 31,113.5C 30.7468,109.219 28.7468,105.553 25,102.5C 24.8019,100.618 24.3019,98.9516 23.5,97.5C 23.3367,95.1432 23.5034,92.8098 24,90.5C 26.1254,87.1922 27.9587,83.8588 29.5,80.5C 29.238,81.9778 29.5713,83.3112 30.5,84.5C 32.1708,80.9877 33.3375,77.3211 34,73.5C 35.6349,72.2744 37.1349,70.941 38.5,69.5C 37.9017,68.2054 37.4017,66.8721 37,65.5C 36.6667,66.1667 36.3333,66.8333 36,67.5C 33.4697,62.2004 34.6363,60.867 39.5,63.5C 41.71,72.7439 43.3767,72.7439 44.5,63.5C 40.1555,63.4742 38.8222,61.4742 40.5,57.5C 41.4209,59.756 43.0876,60.756 45.5,60.5C 45.1742,58.3393 44.1742,56.5059 42.5,55C 44.1626,54.7351 45.6626,55.2351 47,56.5C 47.0114,53.3408 47.8447,50.5074 49.5,48C 51.7008,47.1751 53.5341,47.6751 55,49.5C 56.2788,47.0629 57.7788,46.5629 59.5,48C 59.4042,51.2874 59.4042,54.6207 59.5,58C 59.0946,58.9454 58.428,59.6121 57.5,60C 58.3366,61.0113 58.67,62.1779 58.5,63.5C 60.5273,63.6621 62.5273,63.4955 64.5,63C 69.0866,58.4036 73.9199,54.2369 79,50.5C 79.2734,48.8988 79.7734,47.3988 80.5,46C 84.4391,46.0184 86.7724,44.1851 87.5,40.5C 90.1873,40.6641 92.854,40.4974 95.5,40C 92.3669,40.0461 89.7002,39.0461 87.5,37C 79.5533,35.7252 71.5533,35.2252 63.5,35.5C 63.5,34.5 63.5,33.5 63.5,32.5C 67.8514,33.467 70.1847,31.8004 70.5,27.5C 72.9029,27.552 75.2362,27.2186 77.5,26.5 Z"/></g>
<g><path style="opacity:1" fill="#41d6fa" d="M 70.5,27.5 C 70.1847,31.8004 67.8514,33.467 63.5,32.5C 63.5,33.5 63.5,34.5 63.5,35.5C 71.5533,35.2252 79.5533,35.7252 87.5,37C 89.7002,39.0461 92.3669,40.0461 95.5,40C 92.854,40.4974 90.1873,40.6641 87.5,40.5C 86.7724,44.1851 84.4391,46.0184 80.5,46C 79.7734,47.3988 79.2734,48.8988 79,50.5C 73.9199,54.2369 69.0866,58.4036 64.5,63C 62.5273,63.4955 60.5273,63.6621 58.5,63.5C 58.67,62.1779 58.3366,61.0113 57.5,60C 58.428,59.6121 59.0946,58.9454 59.5,58C 59.4042,54.6207 59.4042,51.2874 59.5,48C 57.7788,46.5629 56.2788,47.0629 55,49.5C 53.5341,47.6751 51.7008,47.1751 49.5,48C 47.8447,50.5074 47.0114,53.3408 47,56.5C 45.6626,55.2351 44.1626,54.7351 42.5,55C 44.1742,56.5059 45.1742,58.3393 45.5,60.5C 43.0876,60.756 41.4209,59.756 40.5,57.5C 38.8222,61.4742 40.1555,63.4742 44.5,63.5C 43.3767,72.7439 41.71,72.7439 39.5,63.5C 34.6363,60.867 33.4697,62.2004 36,67.5C 36.3333,66.8333 36.6667,66.1667 37,65.5C 37.4017,66.8721 37.9017,68.2054 38.5,69.5C 37.1349,70.941 35.6349,72.2744 34,73.5C 33.3375,77.3211 32.1708,80.9877 30.5,84.5C 29.5713,83.3112 29.238,81.9778 29.5,80.5C 30.1922,76.1089 31.1922,71.7755 32.5,67.5C 32.687,65.4357 33.187,63.4357 34,61.5C 40.905,51.1754 49.0716,42.0088 58.5,34C 62.1554,31.1735 66.1554,29.0068 70.5,27.5 Z"/></g>
<g><path style="opacity:1" fill="#3ed6fa" d="M 159.5,47.5 C 155.496,47.5567 151.829,48.7234 148.5,51C 146.513,52.3189 145.346,54.1523 145,56.5C 144.667,56.1667 144.333,55.8333 144,55.5C 141.623,59.442 138.456,62.6086 134.5,65C 135.917,67.7435 135.584,70.2435 133.5,72.5C 132.5,72.5 131.5,72.5 130.5,72.5C 130.5,71.5 130.5,70.5 130.5,69.5C 128.533,69.2606 126.699,69.5939 125,70.5C 123.107,73.618 121.774,76.9513 121,80.5C 119.239,82.6798 117.073,84.3464 114.5,85.5C 113.586,87.6641 112.419,89.6641 111,91.5C 109.91,97.1981 108.577,102.865 107,108.5C 104.677,113.999 102.01,119.332 99,124.5C 98.3333,125.167 97.6667,125.833 97,126.5C 94.3845,123.509 93.5512,120.176 94.5,116.5C 94.2395,114.813 93.5728,113.313 92.5,112C 93.0944,111.536 93.7611,111.369 94.5,111.5C 95.1499,111.804 95.8165,112.137 96.5,112.5C 98.2224,101.61 100.889,90.9437 104.5,80.5C 106.561,80.4573 108.728,79.7906 111,78.5C 110.079,73.1023 112.246,70.769 117.5,71.5C 117.33,70.1779 117.663,69.0113 118.5,68C 122.852,67.3358 124.852,64.8358 124.5,60.5C 125.675,60.719 126.675,60.3857 127.5,59.5C 130.9,53.8003 135.567,49.467 141.5,46.5C 142.127,45.5832 142.461,44.5832 142.5,43.5C 149.193,42.4093 155.527,40.2427 161.5,37C 165.449,35.8157 169.449,35.4823 173.5,36C 169.635,38.7631 165.635,41.2631 161.5,43.5C 160.295,44.5769 159.628,45.9102 159.5,47.5 Z"/></g>
<g><path style="opacity:1" fill="#030303" d="M 562.5,46.5 C 572.141,47.4979 581.808,48.3313 591.5,49C 592.938,49.2189 594.271,49.7189 595.5,50.5C 603.972,77.2491 612.639,103.916 621.5,130.5C 634.603,105.959 647.437,81.2926 660,56.5C 661.062,55.9032 662.228,55.5698 663.5,55.5C 673.147,56.4571 682.813,57.1237 692.5,57.5C 666.225,110.716 639.392,163.716 612,216.5C 601.494,217.251 590.994,216.584 580.5,214.5C 588.821,199.358 596.488,183.858 603.5,168C 589.731,127.526 576.064,87.0263 562.5,46.5 Z"/></g>
<g><path style="opacity:1" fill="#030303" d="M 345.5,47.5 C 370.55,45.4421 390.55,54.2754 405.5,74C 397.57,79.5478 389.404,84.7145 381,89.5C 367.05,74.2394 350.883,71.4061 332.5,81C 321.378,90.6968 317.212,102.863 320,117.5C 323.635,134.799 334.301,143.799 352,144.5C 365.737,144.138 376.071,138.138 383,126.5C 391.748,129.972 400.415,133.638 409,137.5C 408.537,140.77 407.204,143.77 405,146.5C 387.35,167.23 364.85,175.396 337.5,171C 310.584,164.083 294.751,146.917 290,119.5C 286.318,87.0193 299.484,64.5193 329.5,52C 334.874,50.1604 340.207,48.6604 345.5,47.5 Z"/></g>
<g><path style="opacity:1" fill="#3bbde3" d="M 207.5,37.5 C 216.639,40.3271 224.472,45.3271 231,52.5C 233.08,55.0652 234.913,57.7318 236.5,60.5C 231.917,67.3631 225.584,69.6964 217.5,67.5C 214.203,66.2032 211.87,63.8699 210.5,60.5C 205.975,58.565 201.309,57.2317 196.5,56.5C 194.981,55.5902 193.315,54.7568 191.5,54C 185.833,53.6667 180.167,53.3333 174.5,53C 176.392,52.0266 178.392,51.3599 180.5,51C 175.983,49.0161 171.483,49.1828 167,51.5C 165.387,50.3777 164.22,50.8777 163.5,53C 162.167,53.3333 160.833,53.6667 159.5,54C 160.641,54.7412 160.641,55.5745 159.5,56.5C 157.074,57.1684 154.741,57.5018 152.5,57.5C 151.455,59.4005 150.122,61.0672 148.5,62.5C 146.232,61.4557 143.899,61.289 141.5,62C 139.818,64.6901 138.318,67.5234 137,70.5C 136.184,71.8228 135.017,72.4894 133.5,72.5C 135.584,70.2435 135.917,67.7435 134.5,65C 138.456,62.6086 141.623,59.442 144,55.5C 144.333,55.8333 144.667,56.1667 145,56.5C 145.346,54.1523 146.513,52.3189 148.5,51C 151.829,48.7234 155.496,47.5567 159.5,47.5C 164.752,45.5406 169.752,43.0406 174.5,40C 177.429,39.2228 180.263,39.3895 183,40.5C 184.785,39.7599 186.618,39.0933 188.5,38.5C 188.489,39.4415 188.989,40.1081 190,40.5C 195.639,39.4925 201.472,38.4925 207.5,37.5 Z"/></g>
<g><path style="opacity:1" fill="#030303" d="M 501.5,53.5 C 520.942,51.8058 537.442,57.8058 551,71.5C 555.974,78.7857 559.307,86.7857 561,95.5C 561.333,107.833 561.667,120.167 562,132.5C 562.112,137.126 563.279,141.459 565.5,145.5C 566.438,146.553 567.605,147.22 569,147.5C 571.227,146.637 573.393,145.637 575.5,144.5C 579.058,151.148 582.058,158.148 584.5,165.5C 579.946,170.532 574.279,173.699 567.5,175C 553.466,177.481 542.799,172.648 535.5,160.5C 519.917,176.718 501.251,181.552 479.5,175C 469.4,171.232 463.233,164.066 461,153.5C 456.808,133.047 464.308,118.881 483.5,111C 498.638,105.315 514.305,102.815 530.5,103.5C 530.335,89.6683 523.335,82.3349 509.5,81.5C 498.253,82.749 490.92,88.749 487.5,99.5C 479.043,96.5678 470.71,93.2345 462.5,89.5C 461.359,87.5787 461.192,85.5787 462,83.5C 470.157,66.8358 483.324,56.8358 501.5,53.5 Z"/></g>
<g><path style="opacity:1" fill="#0a3e57" d="M 192.5,56.5 C 186.158,56.3338 179.825,56.5005 173.5,57C 172.584,57.2784 171.918,57.7784 171.5,58.5C 170.167,58.5 168.833,58.5 167.5,58.5C 167.5,58.1667 167.5,57.8333 167.5,57.5C 175.847,55.2923 184.18,54.959 192.5,56.5 Z"/></g>
<g><path style="opacity:1" fill="#3ca7cc" d="M 196.5,56.5 C 195.167,56.5 193.833,56.5 192.5,56.5C 184.18,54.959 175.847,55.2923 167.5,57.5C 163.336,58.0296 159.336,59.0296 155.5,60.5C 155.5,61.5 155.5,62.5 155.5,63.5C 149.679,66.1408 144.512,69.8075 140,74.5C 139.536,75.0944 139.369,75.7611 139.5,76.5C 138.5,78.1667 137.167,79.5 135.5,80.5C 133.871,81.6253 132.371,82.9586 131,84.5C 130.184,88.1349 128.35,91.1349 125.5,93.5C 124.296,96.4441 123.296,99.4441 122.5,102.5C 120.647,105.208 119.647,108.208 119.5,111.5C 117.926,113.102 117.259,115.102 117.5,117.5C 117.5,117.833 117.5,118.167 117.5,118.5C 115.613,124.039 113.78,129.706 112,135.5C 111.503,138.146 111.336,140.813 111.5,143.5C 110.503,159.992 110.17,176.658 110.5,193.5C 109.761,193.631 109.094,193.464 108.5,193C 109.326,174.907 109.826,156.74 110,138.5C 112.602,130.704 114.102,122.704 114.5,114.5C 114.5,113.5 114.5,112.5 114.5,111.5C 115.5,111.5 116.5,111.5 117.5,111.5C 117.701,107.426 118.368,103.426 119.5,99.5C 120.992,95.2401 123.326,91.4067 126.5,88C 122.339,85.832 122.506,83.9987 127,82.5C 127.772,82.6448 128.439,82.9781 129,83.5C 130.655,80.847 132.655,78.5136 135,76.5C 135.484,74.8067 134.984,73.4733 133.5,72.5C 135.017,72.4894 136.184,71.8228 137,70.5C 138.318,67.5234 139.818,64.6901 141.5,62C 143.899,61.289 146.232,61.4557 148.5,62.5C 150.122,61.0672 151.455,59.4005 152.5,57.5C 154.741,57.5018 157.074,57.1684 159.5,56.5C 160.641,55.5745 160.641,54.7412 159.5,54C 160.833,53.6667 162.167,53.3333 163.5,53C 164.22,50.8777 165.387,50.3777 167,51.5C 171.483,49.1828 175.983,49.0161 180.5,51C 178.392,51.3599 176.392,52.0266 174.5,53C 180.167,53.3333 185.833,53.6667 191.5,54C 193.315,54.7568 194.981,55.5902 196.5,56.5 Z"/></g>
<g><path style="opacity:1" fill="#2d7a97" d="M 167.5,57.5 C 167.5,57.8333 167.5,58.1667 167.5,58.5C 163.822,59.9567 160.155,61.6234 156.5,63.5C 156.167,63.5 155.833,63.5 155.5,63.5C 155.5,62.5 155.5,61.5 155.5,60.5C 159.336,59.0296 163.336,58.0296 167.5,57.5 Z"/></g>
<g><path style="opacity:1" fill="#23090f" d="M 167.5,58.5 C 168.833,58.5 170.167,58.5 171.5,58.5C 176.179,58.3342 180.845,58.5008 185.5,59C 188.152,59.353 190.152,60.5197 191.5,62.5C 188.833,62.1667 186.167,61.8333 183.5,61.5C 181.429,60.1914 178.929,59.5248 176,59.5C 168.434,59.2142 161.934,61.5475 156.5,66.5C 155.167,66.8333 153.833,67.1667 152.5,67.5C 153.833,66.1667 155.167,64.8333 156.5,63.5C 160.155,61.6234 163.822,59.9567 167.5,58.5 Z"/></g>
<g><path style="opacity:1" fill="#11141f" d="M 192.5,56.5 C 195.906,58.3813 199.239,60.548 202.5,63C 203.38,64.3561 203.714,65.8561 203.5,67.5C 199.424,65.8139 195.424,64.1472 191.5,62.5C 190.152,60.5197 188.152,59.353 185.5,59C 180.845,58.5008 176.179,58.3342 171.5,58.5C 171.918,57.7784 172.584,57.2784 173.5,57C 179.825,56.5005 186.158,56.3338 192.5,56.5 Z"/></g>
<g><path style="opacity:1" fill="#fa656b" d="M 183.5,61.5 C 186.167,61.8333 188.833,62.1667 191.5,62.5C 195.424,64.1472 199.424,65.8139 203.5,67.5C 204.833,68.8333 206.167,70.1667 207.5,71.5C 211.444,76.4472 215.777,81.1139 220.5,85.5C 220.343,86.8734 220.51,88.2068 221,89.5C 223.435,92.715 225.602,96.0483 227.5,99.5C 228.508,101.544 229.508,103.544 230.5,105.5C 232.802,110.485 234.135,115.818 234.5,121.5C 234.83,137.009 234.496,152.342 233.5,167.5C 234.082,146.749 232.415,126.249 228.5,106C 228.001,103.995 226.834,102.495 225,101.5C 224.5,102 224,102.5 223.5,103C 224.728,106.421 226.061,109.754 227.5,113C 226.884,115.179 225.717,117.012 224,118.5C 223.612,117.572 222.945,116.905 222,116.5C 220.85,117.424 219.85,117.424 219,116.5C 218.333,117.167 217.667,117.833 217,118.5C 215.881,117.448 215.381,116.281 215.5,115C 218.878,110.211 217.878,106.544 212.5,104C 213.624,103.751 214.624,103.251 215.5,102.5C 210.431,98.6195 209.765,94.2862 213.5,89.5C 213.291,88.914 212.957,88.414 212.5,88C 209.854,87.5026 207.187,87.3359 204.5,87.5C 204.949,85.0225 204.283,83.0225 202.5,81.5C 199.788,84.1308 197.788,86.7975 196.5,89.5C 194.49,87.8287 192.157,87.162 189.5,87.5C 186.518,87.0371 183.518,86.7038 180.5,86.5C 176.766,86.3227 173.099,86.6561 169.5,87.5C 165.763,87.929 162.43,89.2623 159.5,91.5C 150.926,95.7377 145.259,102.404 142.5,111.5C 140.818,112.827 139.485,114.494 138.5,116.5C 137.022,118.645 135.688,120.979 134.5,123.5C 134.167,122.5 133.833,121.5 133.5,120.5C 134.795,117.621 135.462,114.621 135.5,111.5C 134.167,111.5 132.833,111.5 131.5,111.5C 129.68,114.644 128.013,117.977 126.5,121.5C 125.008,117.601 125.342,113.935 127.5,110.5C 126.05,109.15 125.383,107.484 125.5,105.5C 125.655,102.391 126.322,99.3908 127.5,96.5C 130.744,93.9204 132.744,90.5871 133.5,86.5C 135.843,83.7928 138.177,81.1261 140.5,78.5C 144.621,75.5912 148.621,72.4245 152.5,69C 156.795,68.0881 161.128,67.4215 165.5,67C 164.5,66.6667 163.5,66.3333 162.5,66C 164.723,65.4338 166.723,64.6005 168.5,63.5C 173.271,61.6821 178.271,61.0154 183.5,61.5 Z"/></g>
<g><path style="opacity:1" fill="#700e11" d="M 183.5,61.5 C 178.271,61.0154 173.271,61.6821 168.5,63.5C 164.385,64.0949 160.385,65.0949 156.5,66.5C 161.934,61.5475 168.434,59.2142 176,59.5C 178.929,59.5248 181.429,60.1914 183.5,61.5 Z"/></g>
<g><path style="opacity:1" fill="#183547" d="M 192.5,56.5 C 193.833,56.5 195.167,56.5 196.5,56.5C 200.993,58.579 205.326,60.9123 209.5,63.5C 211.562,67.2795 213.896,70.9461 216.5,74.5C 216.291,75.086 215.957,75.586 215.5,76C 217,77.8333 218.5,79.6667 220,81.5C 220.333,81.1667 220.667,80.8333 221,80.5C 222.61,82.9393 223.444,85.606 223.5,88.5C 222.728,87.3065 221.728,86.3065 220.5,85.5C 218.913,82.7318 217.08,80.0652 215,77.5C 212.337,75.6664 209.837,73.6664 207.5,71.5C 206.167,70.1667 204.833,68.8333 203.5,67.5C 203.714,65.8561 203.38,64.3561 202.5,63C 199.239,60.548 195.906,58.3813 192.5,56.5 Z"/></g>
<g><path style="opacity:1" fill="#c23d42" d="M 168.5,63.5 C 166.723,64.6005 164.723,65.4338 162.5,66C 163.5,66.3333 164.5,66.6667 165.5,67C 161.128,67.4215 156.795,68.0881 152.5,69C 148.621,72.4245 144.621,75.5912 140.5,78.5C 141.833,76.8333 143.167,75.1667 144.5,73.5C 146.316,70.3484 148.983,68.3484 152.5,67.5C 153.833,67.1667 155.167,66.8333 156.5,66.5C 160.385,65.0949 164.385,64.0949 168.5,63.5 Z"/></g>
<g><path style="opacity:1" fill="#3c3b49" d="M 155.5,63.5 C 155.833,63.5 156.167,63.5 156.5,63.5C 155.167,64.8333 153.833,66.1667 152.5,67.5C 148.983,68.3484 146.316,70.3484 144.5,73.5C 142.589,74.075 140.922,75.075 139.5,76.5C 139.369,75.7611 139.536,75.0944 140,74.5C 144.512,69.8075 149.679,66.1408 155.5,63.5 Z"/></g>
<g><path style="opacity:1" fill="#0e4764" d="M 209.5,63.5 C 212.805,67.6366 216.638,71.3033 221,74.5C 222.634,77.48 224.3,80.48 226,83.5C 226.642,87.4908 227.142,91.4908 227.5,95.5C 225.805,93.4649 224.472,91.1316 223.5,88.5C 223.444,85.606 222.61,82.9393 221,80.5C 220.667,80.8333 220.333,81.1667 220,81.5C 218.5,79.6667 217,77.8333 215.5,76C 215.957,75.586 216.291,75.086 216.5,74.5C 213.896,70.9461 211.562,67.2795 209.5,63.5 Z"/></g>
<g><path style="opacity:1" fill="#11819e" d="M 196.5,56.5 C 201.309,57.2317 205.975,58.565 210.5,60.5C 211.87,63.8699 214.203,66.2032 217.5,67.5C 219.86,71.5973 223.026,74.9306 227,77.5C 226.77,83.2917 228.103,88.625 231,93.5C 231.495,95.4727 231.662,97.4727 231.5,99.5C 230.607,97.703 229.274,96.3696 227.5,95.5C 227.142,91.4908 226.642,87.4908 226,83.5C 224.3,80.48 222.634,77.48 221,74.5C 216.638,71.3033 212.805,67.6366 209.5,63.5C 205.326,60.9123 200.993,58.579 196.5,56.5 Z"/></g>
<g><path style="opacity:1" fill="#32a2c5" d="M 236.5,60.5 C 241.208,65.9258 244.208,72.2591 245.5,79.5C 244.167,79.5 242.833,79.5 241.5,79.5C 241.223,82.4475 241.556,85.2809 242.5,88C 241.773,89.3988 241.273,90.8988 241,92.5C 240.02,90.9411 239.187,89.2744 238.5,87.5C 236.334,90.1745 234.334,93.0079 232.5,96C 234.526,100.994 235.86,106.161 236.5,111.5C 235.504,111.586 234.671,111.252 234,110.5C 232.951,106.867 232.118,103.201 231.5,99.5C 231.662,97.4727 231.495,95.4727 231,93.5C 228.103,88.625 226.77,83.2917 227,77.5C 223.026,74.9306 219.86,71.5973 217.5,67.5C 225.584,69.6964 231.917,67.3631 236.5,60.5 Z"/></g>
<g><path style="opacity:1" fill="#cc6a78" d="M 207.5,71.5 C 209.837,73.6664 212.337,75.6664 215,77.5C 217.08,80.0652 218.913,82.7318 220.5,85.5C 215.777,81.1139 211.444,76.4472 207.5,71.5 Z"/></g>
<g><path style="opacity:1" fill="#701528" d="M 144.5,73.5 C 143.167,75.1667 141.833,76.8333 140.5,78.5C 138.177,81.1261 135.843,83.7928 133.5,86.5C 132.833,86.8333 132.167,87.1667 131.5,87.5C 132.833,85.1667 134.167,82.8333 135.5,80.5C 137.167,79.5 138.5,78.1667 139.5,76.5C 140.922,75.075 142.589,74.075 144.5,73.5 Z"/></g>
<g><path style="opacity:1" fill="#3c0400" d="M 180.5,86.5 C 182.741,87.6207 185.075,88.7874 187.5,90C 186.552,90.4828 185.552,90.6495 184.5,90.5C 179.697,88.7581 174.697,88.0915 169.5,88.5C 169.5,88.1667 169.5,87.8333 169.5,87.5C 173.099,86.6561 176.766,86.3227 180.5,86.5 Z"/></g>
<g><path style="opacity:1" fill="#7b260e" d="M 169.5,87.5 C 169.5,87.8333 169.5,88.1667 169.5,88.5C 167.364,89.6528 165.364,90.9862 163.5,92.5C 161.326,92.7497 159.659,93.7497 158.5,95.5C 158.167,95.5 157.833,95.5 157.5,95.5C 157.733,93.9382 158.4,92.6049 159.5,91.5C 162.43,89.2623 165.763,87.929 169.5,87.5 Z"/></g>
<g><path style="opacity:1" fill="#7d5107" d="M 169.5,88.5 C 174.697,88.0915 179.697,88.7581 184.5,90.5C 184.5,90.8333 184.5,91.1667 184.5,91.5C 177.39,89.9449 170.39,90.2782 163.5,92.5C 165.364,90.9862 167.364,89.6528 169.5,88.5 Z"/></g>
<g><path style="opacity:1" fill="#86180a" d="M 180.5,86.5 C 183.518,86.7038 186.518,87.0371 189.5,87.5C 194.167,91.5 198.5,95.8333 202.5,100.5C 202.768,102.099 202.434,103.432 201.5,104.5C 200.833,104.167 200.167,103.833 199.5,103.5C 196.262,97.3711 191.262,93.3711 184.5,91.5C 184.5,91.1667 184.5,90.8333 184.5,90.5C 185.552,90.6495 186.552,90.4828 187.5,90C 185.075,88.7874 182.741,87.6207 180.5,86.5 Z"/></g>
<g><path style="opacity:1" fill="#b53439" d="M 133.5,86.5 C 132.744,90.5871 130.744,93.9204 127.5,96.5C 126.322,99.3908 125.655,102.391 125.5,105.5C 124.833,105.5 124.167,105.5 123.5,105.5C 123.5,104.5 123.5,103.5 123.5,102.5C 125.56,97.0905 128.226,92.0905 131.5,87.5C 132.167,87.1667 132.833,86.8333 133.5,86.5 Z"/></g>
<g><path style="opacity:1" fill="#be6b7c" d="M 220.5,85.5 C 221.728,86.3065 222.728,87.3065 223.5,88.5C 224.472,91.1316 225.805,93.4649 227.5,95.5C 227.5,96.8333 227.5,98.1667 227.5,99.5C 225.602,96.0483 223.435,92.715 221,89.5C 220.51,88.2068 220.343,86.8734 220.5,85.5 Z"/></g>
<g><path style="opacity:1" fill="#d5a515" d="M 184.5,91.5 C 191.262,93.3711 196.262,97.3711 199.5,103.5C 198.5,103.5 197.5,103.5 196.5,103.5C 196.02,100.349 194.354,98.0152 191.5,96.5C 182.983,92.1118 174.316,91.4452 165.5,94.5C 163.194,94.9926 160.861,95.3259 158.5,95.5C 159.659,93.7497 161.326,92.7497 163.5,92.5C 170.39,90.2782 177.39,89.9449 184.5,91.5 Z"/></g>
<g><path style="opacity:1" fill="#544864" d="M 135.5,80.5 C 134.167,82.8333 132.833,85.1667 131.5,87.5C 128.226,92.0905 125.56,97.0905 123.5,102.5C 123.167,102.5 122.833,102.5 122.5,102.5C 123.296,99.4441 124.296,96.4441 125.5,93.5C 128.35,91.1349 130.184,88.1349 131,84.5C 132.371,82.9586 133.871,81.6253 135.5,80.5 Z"/></g>
<g><path style="opacity:1" fill="#b04616" d="M 159.5,91.5 C 158.4,92.6049 157.733,93.9382 157.5,95.5C 151.738,99.2623 147.404,104.262 144.5,110.5C 143.833,110.833 143.167,111.167 142.5,111.5C 145.259,102.404 150.926,95.7377 159.5,91.5 Z"/></g>
<g><path style="opacity:1" fill="#dea70e" d="M 157.5,95.5 C 157.833,95.5 158.167,95.5 158.5,95.5C 157.075,96.922 156.075,98.5887 155.5,100.5C 151.19,102.308 148.524,105.474 147.5,110C 146.552,110.483 145.552,110.649 144.5,110.5C 147.404,104.262 151.738,99.2623 157.5,95.5 Z"/></g>
<g><path style="opacity:1" fill="#fdcc01" d="M 196.5,103.5 C 194.077,106.084 191.411,108.584 188.5,111C 183.942,111.946 179.942,113.946 176.5,117C 174.793,117.195 173.126,117.195 171.5,117C 170.228,118.307 169.228,119.807 168.5,121.5C 167.833,120.833 167.167,120.167 166.5,119.5C 161.708,125.76 156.542,131.76 151,137.5C 150.612,140.849 150.779,144.183 151.5,147.5C 155.182,148.275 157.682,146.941 159,143.5C 161.955,143.678 165.121,143.678 168.5,143.5C 167.907,151.981 170.907,154.648 177.5,151.5C 181.413,152.001 185.413,152.001 189.5,151.5C 189.701,161.969 190.368,161.969 191.5,151.5C 192.675,151.719 193.675,151.386 194.5,150.5C 196.7,145.465 199.867,141.132 204,137.5C 205.47,138.267 206.97,138.933 208.5,139.5C 209.619,148.146 210.619,156.812 211.5,165.5C 211.308,167.577 210.808,169.577 210,171.5C 209.333,172.833 208.667,172.833 208,171.5C 207.51,172.793 207.343,174.127 207.5,175.5C 204.813,175.336 202.146,175.503 199.5,176C 196.135,178.067 192.468,179.4 188.5,180C 181.335,180.524 174.168,181.024 167,181.5C 162.42,181.242 158.086,180.908 154,180.5C 150.649,185.649 146.149,186.816 140.5,184C 139.244,183.583 138.577,182.75 138.5,181.5C 143.67,182.714 144.67,181.047 141.5,176.5C 142.325,175.614 143.325,175.281 144.5,175.5C 145.823,168.929 146.823,162.263 147.5,155.5C 147.015,150.632 146.348,145.799 145.5,141C 148.722,132.725 152.555,124.892 157,117.5C 157.49,116.207 157.657,114.873 157.5,113.5C 163.944,111.357 169.778,108.024 175,103.5C 175.333,103.833 175.667,104.167 176,104.5C 178.139,102.965 180.139,101.299 182,99.5C 182.333,99.8333 182.667,100.167 183,100.5C 183.863,98.2511 183.363,96.4178 181.5,95C 176.096,95.2326 170.763,95.066 165.5,94.5C 174.316,91.4452 182.983,92.1118 191.5,96.5C 194.354,98.0152 196.02,100.349 196.5,103.5 Z"/></g>
<g><path style="opacity:1" fill="#32b1d6" d="M 245.5,79.5 C 248.905,87.0892 251.405,95.0892 253,103.5C 255.158,118.099 256.658,132.766 257.5,147.5C 256.681,150.305 256.181,153.305 256,156.5C 253.755,160.262 251.255,163.929 248.5,167.5C 245.667,168.933 242.667,169.6 239.5,169.5C 238.893,153.352 238.227,137.352 237.5,121.5C 236.676,118.236 236.342,114.902 236.5,111.5C 235.86,106.161 234.526,100.994 232.5,96C 234.334,93.0079 236.334,90.1745 238.5,87.5C 239.187,89.2744 240.02,90.9411 241,92.5C 241.273,90.8988 241.773,89.3988 242.5,88C 241.556,85.2809 241.223,82.4475 241.5,79.5C 242.833,79.5 244.167,79.5 245.5,79.5 Z"/></g>
<g><path style="opacity:1" fill="#aa7079" d="M 227.5,99.5 C 229.975,100.687 230.975,102.687 230.5,105.5C 229.508,103.544 228.508,101.544 227.5,99.5 Z"/></g>
<g><path style="opacity:1" fill="#6b2b3b" d="M 122.5,102.5 C 122.833,102.5 123.167,102.5 123.5,102.5C 123.5,103.5 123.5,104.5 123.5,105.5C 123.5,105.833 123.5,106.167 123.5,106.5C 121.926,107.984 120.593,109.651 119.5,111.5C 119.647,108.208 120.647,105.208 122.5,102.5 Z"/></g>
<g><path style="opacity:1" fill="#fdc501" d="M 196.5,103.5 C 197.5,103.5 198.5,103.5 199.5,103.5C 199.785,105.288 199.452,106.955 198.5,108.5C 195.355,108.761 192.355,109.928 189.5,112C 185.694,116.171 183.694,121.171 183.5,127C 185.638,130.121 187.138,133.621 188,137.5C 190.078,140.354 192.245,140.688 194.5,138.5C 196.548,139.083 198.381,139.083 200,138.5C 201.911,135.697 204.411,135.03 207.5,136.5C 208.127,137.417 208.461,138.417 208.5,139.5C 206.97,138.933 205.47,138.267 204,137.5C 199.867,141.132 196.7,145.465 194.5,150.5C 193.675,151.386 192.675,151.719 191.5,151.5C 190.368,161.969 189.701,161.969 189.5,151.5C 185.413,152.001 181.413,152.001 177.5,151.5C 170.907,154.648 167.907,151.981 168.5,143.5C 165.121,143.678 161.955,143.678 159,143.5C 157.682,146.941 155.182,148.275 151.5,147.5C 150.779,144.183 150.612,140.849 151,137.5C 156.542,131.76 161.708,125.76 166.5,119.5C 167.167,120.167 167.833,120.833 168.5,121.5C 169.228,119.807 170.228,118.307 171.5,117C 173.126,117.195 174.793,117.195 176.5,117C 179.942,113.946 183.942,111.946 188.5,111C 191.411,108.584 194.077,106.084 196.5,103.5 Z"/></g>
<g><path style="opacity:1" fill="#f96261" d="M 123.5,105.5 C 124.167,105.5 124.833,105.5 125.5,105.5C 125.383,107.484 126.05,109.15 127.5,110.5C 125.342,113.935 125.008,117.601 126.5,121.5C 128.013,117.977 129.68,114.644 131.5,111.5C 132.833,111.5 134.167,111.5 135.5,111.5C 135.462,114.621 134.795,117.621 133.5,120.5C 133.833,121.5 134.167,122.5 134.5,123.5C 135.688,120.979 137.022,118.645 138.5,116.5C 137.145,121.772 135.979,127.106 135,132.5C 134.171,151.005 134.338,169.338 135.5,187.5C 135.5,187.833 135.5,188.167 135.5,188.5C 135.167,188.5 134.833,188.5 134.5,188.5C 134.167,188.5 133.833,188.5 133.5,188.5C 133.667,171.83 133.5,155.163 133,138.5C 132.667,138.167 132.333,137.833 132,137.5C 129.772,138.892 128.606,140.892 128.5,143.5C 127.5,143.5 126.5,143.5 125.5,143.5C 125.569,148.854 125.902,154.187 126.5,159.5C 124.833,159.5 123.167,159.5 121.5,159.5C 120.982,153.481 121.649,147.648 123.5,142C 122.597,139.123 121.597,136.29 120.5,133.5C 119.833,136.833 119.167,140.167 118.5,143.5C 119.315,156.019 119.315,168.686 118.5,181.5C 118.478,183.965 118.978,186.298 120,188.5C 120.414,188.043 120.914,187.709 121.5,187.5C 122.491,183.555 122.824,179.555 122.5,175.5C 123.5,175.5 124.5,175.5 125.5,175.5C 125.5,180.167 125.5,184.833 125.5,189.5C 122.017,191.03 118.35,192.03 114.5,192.5C 115.333,177.516 115.666,162.516 115.5,147.5C 116.328,141.013 116.828,134.346 117,127.5C 120.226,120.755 122.393,113.755 123.5,106.5C 123.5,106.167 123.5,105.833 123.5,105.5 Z"/></g>
<g><path style="opacity:1" fill="#fdd604" d="M 165.5,94.5 C 170.763,95.066 176.096,95.2326 181.5,95C 183.363,96.4178 183.863,98.2511 183,100.5C 182.667,100.167 182.333,99.8333 182,99.5C 180.139,101.299 178.139,102.965 176,104.5C 175.667,104.167 175.333,103.833 175,103.5C 169.778,108.024 163.944,111.357 157.5,113.5C 157.657,114.873 157.49,116.207 157,117.5C 152.555,124.892 148.722,132.725 145.5,141C 146.348,145.799 147.015,150.632 147.5,155.5C 146.823,162.263 145.823,168.929 144.5,175.5C 143.325,175.281 142.325,175.614 141.5,176.5C 144.67,181.047 143.67,182.714 138.5,181.5C 137.504,167.677 137.171,153.677 137.5,139.5C 137.205,137.265 137.539,135.265 138.5,133.5C 139.317,131.031 139.817,128.365 140,125.5C 140.383,124.944 140.883,124.611 141.5,124.5C 139.726,139.786 139.226,155.119 140,170.5C 140.284,168.114 141.284,167.448 143,168.5C 143.354,164.646 143.854,160.812 144.5,157C 144.077,151.617 143.743,146.284 143.5,141C 146.646,135.54 148.812,129.706 150,123.5C 154.307,119.701 157.14,115.034 158.5,109.5C 161.553,107.978 164.22,105.978 166.5,103.5C 167.429,102.311 167.762,100.978 167.5,99.5C 163.434,99.307 159.434,99.6403 155.5,100.5C 156.075,98.5887 157.075,96.922 158.5,95.5C 160.861,95.3259 163.194,94.9926 165.5,94.5 Z"/></g>
<g><path style="opacity:1" fill="#f4ba05" d="M 199.5,103.5 C 200.167,103.833 200.833,104.167 201.5,104.5C 201.5,104.833 201.5,105.167 201.5,105.5C 202.496,110.82 203.496,116.154 204.5,121.5C 203.658,124.01 202.158,124.677 200,123.5C 199.5,124.5 199,125.5 198.5,126.5C 200.994,127.399 203.828,127.733 207,127.5C 208.444,133.565 209.944,139.565 211.5,145.5C 212.341,147.379 212.675,149.379 212.5,151.5C 212.666,158.175 212.5,164.842 212,171.5C 211.348,174.515 209.848,176.849 207.5,178.5C 196.872,180.055 186.538,182.388 176.5,185.5C 176.167,185.5 175.833,185.5 175.5,185.5C 165.42,185.89 155.42,186.89 145.5,188.5C 142.783,188.386 140.116,188.052 137.5,187.5C 136.221,171.353 136.221,155.353 137.5,139.5C 137.171,153.677 137.504,167.677 138.5,181.5C 138.577,182.75 139.244,183.583 140.5,184C 146.149,186.816 150.649,185.649 154,180.5C 158.086,180.908 162.42,181.242 167,181.5C 174.168,181.024 181.335,180.524 188.5,180C 192.468,179.4 196.135,178.067 199.5,176C 202.146,175.503 204.813,175.336 207.5,175.5C 207.343,174.127 207.51,172.793 208,171.5C 208.667,172.833 209.333,172.833 210,171.5C 210.808,169.577 211.308,167.577 211.5,165.5C 210.619,156.812 209.619,148.146 208.5,139.5C 208.461,138.417 208.127,137.417 207.5,136.5C 204.411,135.03 201.911,135.697 200,138.5C 198.381,139.083 196.548,139.083 194.5,138.5C 192.245,140.688 190.078,140.354 188,137.5C 187.138,133.621 185.638,130.121 183.5,127C 183.694,121.171 185.694,116.171 189.5,112C 192.355,109.928 195.355,108.761 198.5,108.5C 199.452,106.955 199.785,105.288 199.5,103.5 Z"/></g>
<g><path style="opacity:1" fill="#5e3756" d="M 119.5,111.5 C 119.741,113.898 119.074,115.898 117.5,117.5C 117.259,115.102 117.926,113.102 119.5,111.5 Z"/></g>
<g><path style="opacity:1" fill="#f95e61" d="M 233.5,167.5 C 233.5,169.167 233.5,170.833 233.5,172.5C 233.167,172.5 232.833,172.5 232.5,172.5C 227.764,172.588 223.097,173.255 218.5,174.5C 216.631,174.493 214.964,174.16 213.5,173.5C 214.991,170.814 215.657,167.814 215.5,164.5C 215.375,159.945 214.708,155.611 213.5,151.5C 212.866,142.155 212.032,132.822 211,123.5C 208.608,115.549 205.775,107.882 202.5,100.5C 198.5,95.8333 194.167,91.5 189.5,87.5C 192.157,87.162 194.49,87.8287 196.5,89.5C 197.788,86.7975 199.788,84.1308 202.5,81.5C 204.283,83.0225 204.949,85.0225 204.5,87.5C 207.187,87.3359 209.854,87.5026 212.5,88C 212.957,88.414 213.291,88.914 213.5,89.5C 209.765,94.2862 210.431,98.6195 215.5,102.5C 214.624,103.251 213.624,103.751 212.5,104C 217.878,106.544 218.878,110.211 215.5,115C 215.381,116.281 215.881,117.448 217,118.5C 217.667,117.833 218.333,117.167 219,116.5C 219.85,117.424 220.85,117.424 222,116.5C 222.945,116.905 223.612,117.572 224,118.5C 225.717,117.012 226.884,115.179 227.5,113C 226.061,109.754 224.728,106.421 223.5,103C 224,102.5 224.5,102 225,101.5C 226.834,102.495 228.001,103.995 228.5,106C 232.415,126.249 234.082,146.749 233.5,167.5 Z"/></g>
<g><path style="opacity:1" fill="#c93e47" d="M 123.5,106.5 C 122.393,113.755 120.226,120.755 117,127.5C 116.828,134.346 116.328,141.013 115.5,147.5C 115.784,145.585 115.451,143.919 114.5,142.5C 114.5,139.833 114.5,137.167 114.5,134.5C 115.497,129.198 116.497,123.864 117.5,118.5C 117.5,118.167 117.5,117.833 117.5,117.5C 119.074,115.898 119.741,113.898 119.5,111.5C 120.593,109.651 121.926,107.984 123.5,106.5 Z"/></g>
<g><path style="opacity:1" fill="#fcdf10" d="M 141.5,124.5 C 142.868,119.929 143.868,115.262 144.5,110.5C 145.552,110.649 146.552,110.483 147.5,110C 148.524,105.474 151.19,102.308 155.5,100.5C 159.434,99.6403 163.434,99.307 167.5,99.5C 167.762,100.978 167.429,102.311 166.5,103.5C 164.22,105.978 161.553,107.978 158.5,109.5C 157.14,115.034 154.307,119.701 150,123.5C 148.812,129.706 146.646,135.54 143.5,141C 143.743,146.284 144.077,151.617 144.5,157C 143.854,160.812 143.354,164.646 143,168.5C 141.284,167.448 140.284,168.114 140,170.5C 139.226,155.119 139.726,139.786 141.5,124.5 Z"/></g>
<g><path style="opacity:1" fill="#f2a916" d="M 201.5,105.5 C 202.892,107.273 204.059,109.273 205,111.5C 208.389,122.613 210.556,133.946 211.5,145.5C 209.944,139.565 208.444,133.565 207,127.5C 203.828,127.733 200.994,127.399 198.5,126.5C 199,125.5 199.5,124.5 200,123.5C 202.158,124.677 203.658,124.01 204.5,121.5C 203.496,116.154 202.496,110.82 201.5,105.5 Z"/></g>
<g><path style="opacity:1" fill="#38c5ec" d="M 133.5,72.5 C 134.984,73.4733 135.484,74.8067 135,76.5C 132.655,78.5136 130.655,80.847 129,83.5C 128.439,82.9781 127.772,82.6448 127,82.5C 122.506,83.9987 122.339,85.832 126.5,88C 123.326,91.4067 120.992,95.2401 119.5,99.5C 118.368,103.426 117.701,107.426 117.5,111.5C 116.5,111.5 115.5,111.5 114.5,111.5C 114.5,112.5 114.5,113.5 114.5,114.5C 110.053,115.98 106.886,118.98 105,123.5C 104.824,129.113 103.991,134.613 102.5,140C 103.203,145.143 103.703,150.309 104,155.5C 104.692,156.025 105.192,156.692 105.5,157.5C 103.929,163.316 102.929,169.316 102.5,175.5C 101.833,173.833 101.167,172.167 100.5,170.5C 99.6781,174.471 98.1781,178.137 96,181.5C 95.5017,184.817 95.335,188.15 95.5,191.5C 94.0821,193.308 92.0821,193.975 89.5,193.5C 89.5,192.5 89.5,191.5 89.5,190.5C 90.7251,189.848 91.3917,188.681 91.5,187C 91.1075,183.241 90.4408,179.574 89.5,176C 90.1022,159.023 90.6022,141.856 91,124.5C 88.6194,123.565 86.1194,123.232 83.5,123.5C 82.6178,127.143 80.2845,128.31 76.5,127C 76.8333,126.667 77.1667,126.333 77.5,126C 76.373,124.247 75.373,122.413 74.5,120.5C 73.675,119.614 72.675,119.281 71.5,119.5C 71.719,118.325 71.3857,117.325 70.5,116.5C 68.9793,116.88 67.3126,117.046 65.5,117C 63.5456,119.632 61.5456,122.299 59.5,125C 57.7258,133.693 57.7258,142.526 59.5,151.5C 56.6309,156.809 52.6309,157.809 47.5,154.5C 46.6533,153.155 45.4866,152.155 44,151.5C 43.2652,149.129 42.4318,146.795 41.5,144.5C 36.6677,144.287 32.8344,142.287 30,138.5C 27.3933,139.27 24.7266,139.937 22,140.5C 20.1075,139.655 18.2741,139.988 16.5,141.5C 16.3359,138.813 16.5026,136.146 17,133.5C 18.0695,133.64 19.2361,133.64 20.5,133.5C 21.3094,131.929 21.6427,130.262 21.5,128.5C 22.8221,128.67 23.9887,128.337 25,127.5C 25.4994,122.177 25.666,116.844 25.5,111.5C 24.5,111.5 23.5,111.5 22.5,111.5C 22.6353,117.06 21.8019,122.394 20,127.5C 18.7684,117.126 19.9351,107.126 23.5,97.5C 24.3019,98.9516 24.8019,100.618 25,102.5C 28.7468,105.553 30.7468,109.219 31,113.5C 31.6667,112.833 32.3333,112.167 33,111.5C 34.5885,114.383 37.0885,115.883 40.5,116C 41.2266,117.399 41.7266,118.899 42,120.5C 44.5029,122.48 46.3362,124.813 47.5,127.5C 48.8333,127.5 50.1667,127.5 51.5,127.5C 51.3359,124.813 51.5026,122.146 52,119.5C 52.7412,118.359 53.5745,118.359 54.5,119.5C 55.2811,118.271 55.7811,116.938 56,115.5C 56.2256,108.628 57.2256,101.961 59,95.5C 60.2988,95.9662 61.7988,95.9662 63.5,95.5C 64.1667,92.8333 64.8333,90.1667 65.5,87.5C 67.8333,87.5 70.1667,87.5 72.5,87.5C 74.0841,93.9257 75.5841,93.9257 77,87.5C 77.2868,89.8907 77.7868,92.2241 78.5,94.5C 78.0688,95.2935 77.7355,96.1268 77.5,97C 78.8362,99.678 79.6696,102.511 80,105.5C 80.7096,104.027 81.8762,103.36 83.5,103.5C 83.372,105.655 83.872,107.655 85,109.5C 86.7616,101.704 87.595,101.704 87.5,109.5C 89.5273,109.338 91.5273,109.505 93.5,110C 94.056,110.383 94.3893,110.883 94.5,111.5C 93.7611,111.369 93.0944,111.536 92.5,112C 93.5728,113.313 94.2395,114.813 94.5,116.5C 93.5512,120.176 94.3845,123.509 97,126.5C 97.6667,125.833 98.3333,125.167 99,124.5C 102.01,119.332 104.677,113.999 107,108.5C 108.577,102.865 109.91,97.1981 111,91.5C 112.419,89.6641 113.586,87.6641 114.5,85.5C 117.073,84.3464 119.239,82.6798 121,80.5C 121.774,76.9513 123.107,73.618 125,70.5C 126.699,69.5939 128.533,69.2606 130.5,69.5C 130.5,70.5 130.5,71.5 130.5,72.5C 131.5,72.5 132.5,72.5 133.5,72.5 Z"/></g>
<g><path style="opacity:1" fill="#a45166" d="M 234.5,121.5 C 234.833,121.5 235.167,121.5 235.5,121.5C 235.5,138.5 235.5,155.5 235.5,172.5C 234.833,172.5 234.167,172.5 233.5,172.5C 233.5,170.833 233.5,169.167 233.5,167.5C 234.496,152.342 234.83,137.009 234.5,121.5 Z"/></g>
<g><path style="opacity:1" fill="#f7f7f7" d="M 511.5,127.5 C 518.167,127.5 524.833,127.5 531.5,127.5C 528.595,142.566 519.429,150.899 504,152.5C 494.463,152.63 490.129,147.964 491,138.5C 492.308,136.359 493.808,134.359 495.5,132.5C 500.665,129.882 505.999,128.216 511.5,127.5 Z"/></g>
<g><path style="opacity:1" fill="#47c1dd" d="M 32.5,67.5 C 31.1922,71.7755 30.1922,76.1089 29.5,80.5C 27.9587,83.8588 26.1254,87.1922 24,90.5C 23.5034,92.8098 23.3367,95.1432 23.5,97.5C 19.9351,107.126 18.7684,117.126 20,127.5C 21.8019,122.394 22.6353,117.06 22.5,111.5C 23.5,111.5 24.5,111.5 25.5,111.5C 25.666,116.844 25.4994,122.177 25,127.5C 23.9887,128.337 22.8221,128.67 21.5,128.5C 21.6427,130.262 21.3094,131.929 20.5,133.5C 19.2361,133.64 18.0695,133.64 17,133.5C 16.5026,136.146 16.3359,138.813 16.5,141.5C 16.5,142.5 16.5,143.5 16.5,144.5C 15.5111,139.025 15.1778,133.358 15.5,127.5C 16.7609,108.359 21.2609,90.0262 29,72.5C 30.1889,70.7669 31.3556,69.1002 32.5,67.5 Z"/></g>
<g><path style="opacity:1" fill="#435263" d="M 235.5,121.5 C 235.838,138.358 236.838,155.025 238.5,171.5C 238.548,172.507 237.548,172.84 235.5,172.5C 235.5,155.5 235.5,138.5 235.5,121.5 Z"/></g>
<g><path style="opacity:1" fill="#f1b311" d="M 144.5,110.5 C 143.868,115.262 142.868,119.929 141.5,124.5C 140.883,124.611 140.383,124.944 140,125.5C 139.817,128.365 139.317,131.031 138.5,133.5C 138.5,130.833 138.5,128.167 138.5,125.5C 139.628,120.781 140.962,116.114 142.5,111.5C 143.167,111.167 143.833,110.833 144.5,110.5 Z"/></g>
<g><path style="opacity:1" fill="#b2370b" d="M 202.5,100.5 C 205.775,107.882 208.608,115.549 211,123.5C 212.032,132.822 212.866,142.155 213.5,151.5C 213.167,151.5 212.833,151.5 212.5,151.5C 212.675,149.379 212.341,147.379 211.5,145.5C 210.556,133.946 208.389,122.613 205,111.5C 204.059,109.273 202.892,107.273 201.5,105.5C 201.5,105.167 201.5,104.833 201.5,104.5C 202.434,103.432 202.768,102.099 202.5,100.5 Z"/></g>
<g><path style="opacity:1" fill="#326f80" d="M 227.5,95.5 C 229.274,96.3696 230.607,97.703 231.5,99.5C 232.118,103.201 232.951,106.867 234,110.5C 234.671,111.252 235.504,111.586 236.5,111.5C 236.342,114.902 236.676,118.236 237.5,121.5C 237.195,138.214 237.529,154.881 238.5,171.5C 236.838,155.025 235.838,138.358 235.5,121.5C 235.167,121.5 234.833,121.5 234.5,121.5C 234.135,115.818 232.802,110.485 230.5,105.5C 230.975,102.687 229.975,100.687 227.5,99.5C 227.5,98.1667 227.5,96.8333 227.5,95.5 Z"/></g>
<g><path style="opacity:1" fill="#37bde3" d="M 89.5,190.5 C 89.0022,187.513 88.5022,184.513 88,181.5C 87.6667,182.167 87.3333,182.833 87,183.5C 84.6264,179.73 82.6264,175.73 81,171.5C 80.564,175.053 78.564,177.053 75,177.5C 73.5468,174.702 72.5468,171.702 72,168.5C 71.6667,168.833 71.3333,169.167 71,169.5C 69.7101,167.208 68.0435,165.208 66,163.5C 59.36,164.619 52.5267,164.285 45.5,162.5C 44.6667,161.5 43.8333,160.5 43,159.5C 41.744,155.158 40.244,150.992 38.5,147C 36.7971,146.255 35.1305,145.421 33.5,144.5C 29.0216,145.289 24.5216,145.956 20,146.5C 18.3189,146.392 17.1522,145.725 16.5,144.5C 16.5,143.5 16.5,142.5 16.5,141.5C 18.2741,139.988 20.1075,139.655 22,140.5C 24.7266,139.937 27.3933,139.27 30,138.5C 32.8344,142.287 36.6677,144.287 41.5,144.5C 42.4318,146.795 43.2652,149.129 44,151.5C 45.4866,152.155 46.6533,153.155 47.5,154.5C 52.6309,157.809 56.6309,156.809 59.5,151.5C 57.7258,142.526 57.7258,133.693 59.5,125C 61.5456,122.299 63.5456,119.632 65.5,117C 67.3126,117.046 68.9793,116.88 70.5,116.5C 71.3857,117.325 71.719,118.325 71.5,119.5C 72.675,119.281 73.675,119.614 74.5,120.5C 75.373,122.413 76.373,124.247 77.5,126C 77.1667,126.333 76.8333,126.667 76.5,127C 80.2845,128.31 82.6178,127.143 83.5,123.5C 86.1194,123.232 88.6194,123.565 91,124.5C 90.6022,141.856 90.1022,159.023 89.5,176C 90.4408,179.574 91.1075,183.241 91.5,187C 91.3917,188.681 90.7251,189.848 89.5,190.5 Z"/></g>
<g><path style="opacity:1" fill="#208cac" d="M 237.5,121.5 C 238.227,137.352 238.893,153.352 239.5,169.5C 242.667,169.6 245.667,168.933 248.5,167.5C 251.255,163.929 253.755,160.262 256,156.5C 256.181,153.305 256.681,150.305 257.5,147.5C 257.884,154.589 257.384,161.589 256,168.5C 249.506,172.521 242.673,173.855 235.5,172.5C 237.548,172.84 238.548,172.507 238.5,171.5C 237.529,154.881 237.195,138.214 237.5,121.5 Z"/></g>
<g><path style="opacity:1" fill="#34b4de" d="M 114.5,114.5 C 114.102,122.704 112.602,130.704 110,138.5C 109.826,156.74 109.326,174.907 108.5,193C 109.094,193.464 109.761,193.631 110.5,193.5C 109.833,194.5 109.167,195.5 108.5,196.5C 102.966,198.068 97.2994,199.068 91.5,199.5C 91.4142,198.504 91.7476,197.671 92.5,197C 95.8798,195.559 99.0465,193.726 102,191.5C 101.734,181.559 100.234,181.226 97.5,190.5C 96.8165,190.863 96.1499,191.196 95.5,191.5C 95.335,188.15 95.5017,184.817 96,181.5C 98.1781,178.137 99.6781,174.471 100.5,170.5C 101.167,172.167 101.833,173.833 102.5,175.5C 102.929,169.316 103.929,163.316 105.5,157.5C 105.192,156.692 104.692,156.025 104,155.5C 103.703,150.309 103.203,145.143 102.5,140C 103.991,134.613 104.824,129.113 105,123.5C 106.886,118.98 110.053,115.98 114.5,114.5 Z"/></g>
<g><path style="opacity:1" fill="#9b2128" d="M 114.5,134.5 C 114.5,137.167 114.5,139.833 114.5,142.5C 113.369,159.328 113.369,175.995 114.5,192.5C 118.35,192.03 122.017,191.03 125.5,189.5C 128.279,189.721 130.946,189.388 133.5,188.5C 133.833,188.5 134.167,188.5 134.5,188.5C 133.64,190.614 131.973,191.78 129.5,192C 123.91,193.419 118.243,194.252 112.5,194.5C 112.333,177.497 112.5,160.497 113,143.5C 113.181,140.305 113.681,137.305 114.5,134.5 Z"/></g>
<g><path style="opacity:1" fill="#dd7f11" d="M 138.5,125.5 C 138.5,128.167 138.5,130.833 138.5,133.5C 137.539,135.265 137.205,137.265 137.5,139.5C 136.221,155.353 136.221,171.353 137.5,187.5C 136.833,187.5 136.167,187.5 135.5,187.5C 135.333,171.163 135.5,154.83 136,138.5C 136.272,133.924 137.105,129.591 138.5,125.5 Z"/></g>
<g><path style="opacity:1" fill="#fc5e66" d="M 133.5,188.5 C 130.946,189.388 128.279,189.721 125.5,189.5C 125.5,184.833 125.5,180.167 125.5,175.5C 124.5,175.5 123.5,175.5 122.5,175.5C 122.824,179.555 122.491,183.555 121.5,187.5C 120.914,187.709 120.414,188.043 120,188.5C 118.978,186.298 118.478,183.965 118.5,181.5C 119.315,168.686 119.315,156.019 118.5,143.5C 119.167,140.167 119.833,136.833 120.5,133.5C 121.597,136.29 122.597,139.123 123.5,142C 121.649,147.648 120.982,153.481 121.5,159.5C 123.167,159.5 124.833,159.5 126.5,159.5C 125.902,154.187 125.569,148.854 125.5,143.5C 126.5,143.5 127.5,143.5 128.5,143.5C 128.606,140.892 129.772,138.892 132,137.5C 132.333,137.833 132.667,138.167 133,138.5C 133.5,155.163 133.667,171.83 133.5,188.5 Z"/></g>
<g><path style="opacity:1" fill="#717171" d="M 415.5,128.5 C 415.5,145.167 415.5,161.833 415.5,178.5C 425.5,178.5 435.5,178.5 445.5,178.5C 435.347,179.494 425.014,179.828 414.5,179.5C 414.17,162.325 414.503,145.325 415.5,128.5 Z"/></g>
<g><path style="opacity:1" fill="#e79723" d="M 212.5,151.5 C 212.833,151.5 213.167,151.5 213.5,151.5C 213.5,158.833 213.5,166.167 213.5,173.5C 212.167,174.167 212.167,174.833 213.5,175.5C 211.75,176.87 209.75,177.87 207.5,178.5C 209.848,176.849 211.348,174.515 212,171.5C 212.5,164.842 212.666,158.175 212.5,151.5 Z"/></g>
<g><path style="opacity:1" fill="#e5672d" d="M 213.5,151.5 C 214.708,155.611 215.375,159.945 215.5,164.5C 215.657,167.814 214.991,170.814 213.5,173.5C 213.5,166.167 213.5,158.833 213.5,151.5 Z"/></g>
<g><path style="opacity:1" fill="#d45f27" d="M 142.5,111.5 C 140.962,116.114 139.628,120.781 138.5,125.5C 137.105,129.591 136.272,133.924 136,138.5C 135.5,154.83 135.333,171.163 135.5,187.5C 134.338,169.338 134.171,151.005 135,132.5C 135.979,127.106 137.145,121.772 138.5,116.5C 139.485,114.494 140.818,112.827 142.5,111.5 Z"/></g>
<g><path style="opacity:1" fill="#5a7d9f" d="M 111.5,143.5 C 111.5,160.5 111.5,177.5 111.5,194.5C 111.443,195.609 111.11,196.609 110.5,197.5C 109.508,197.672 108.842,197.338 108.5,196.5C 109.167,195.5 109.833,194.5 110.5,193.5C 110.17,176.658 110.503,159.992 111.5,143.5 Z"/></g>
<g><path style="opacity:1" fill="#a22a27" d="M 232.5,172.5 C 226.556,175.089 220.222,176.089 213.5,175.5C 212.167,174.833 212.167,174.167 213.5,173.5C 214.964,174.16 216.631,174.493 218.5,174.5C 223.097,173.255 227.764,172.588 232.5,172.5 Z"/></g>
<g><path style="opacity:1" fill="#db323a" d="M 114.5,142.5 C 115.451,143.919 115.784,145.585 115.5,147.5C 115.666,162.516 115.333,177.516 114.5,192.5C 113.369,175.995 113.369,159.328 114.5,142.5 Z"/></g>
<g><path style="opacity:1" fill="#32acd0" d="M 15.5,127.5 C 15.1778,133.358 15.5111,139.025 16.5,144.5C 17.1522,145.725 18.3189,146.392 20,146.5C 24.5216,145.956 29.0216,145.289 33.5,144.5C 35.1305,145.421 36.7971,146.255 38.5,147C 40.244,150.992 41.744,155.158 43,159.5C 43.8333,160.5 44.6667,161.5 45.5,162.5C 52.5267,164.285 59.36,164.619 66,163.5C 68.0435,165.208 69.7101,167.208 71,169.5C 71.3333,169.167 71.6667,168.833 72,168.5C 72.5468,171.702 73.5468,174.702 75,177.5C 78.564,177.053 80.564,175.053 81,171.5C 82.6264,175.73 84.6264,179.73 87,183.5C 87.3333,182.833 87.6667,182.167 88,181.5C 88.5022,184.513 89.0022,187.513 89.5,190.5C 89.5,191.5 89.5,192.5 89.5,193.5C 92.0821,193.975 94.0821,193.308 95.5,191.5C 96.1499,191.196 96.8165,190.863 97.5,190.5C 100.234,181.226 101.734,181.559 102,191.5C 99.0465,193.726 95.8798,195.559 92.5,197C 91.7476,197.671 91.4142,198.504 91.5,199.5C 86.0208,198.427 81.0208,196.26 76.5,193C 71.7869,191.326 67.1202,189.66 62.5,188C 62.8333,187.667 63.1667,187.333 63.5,187C 48.9337,183.478 34.6004,179.145 20.5,174C 16.3485,169.986 14.3485,165.152 14.5,159.5C 13.8344,155.681 13.5011,151.681 13.5,147.5C 13.3897,140.608 14.0564,133.942 15.5,127.5 Z"/></g>
<g><path style="opacity:1" fill="#c89620" d="M 207.5,178.5 C 197.621,182.395 187.287,184.729 176.5,185.5C 186.538,182.388 196.872,180.055 207.5,178.5 Z"/></g>
<g><path style="opacity:1" fill="#32879e" d="M 14.5,159.5 C 14.3485,165.152 16.3485,169.986 20.5,174C 34.6004,179.145 48.9337,183.478 63.5,187C 63.1667,187.333 62.8333,187.667 62.5,188C 67.1202,189.66 71.7869,191.326 76.5,193C 81.0208,196.26 86.0208,198.427 91.5,199.5C 97.2994,199.068 102.966,198.068 108.5,196.5C 108.842,197.338 109.508,197.672 110.5,197.5C 103.702,201.174 96.3689,202.341 88.5,201C 67.596,191.053 45.9293,183.053 23.5,177C 15.1308,174.098 12.1308,168.265 14.5,159.5 Z"/></g>
<g><path style="opacity:1" fill="#694052" d="M 117.5,118.5 C 116.497,123.864 115.497,129.198 114.5,134.5C 113.681,137.305 113.181,140.305 113,143.5C 112.5,160.497 112.333,177.497 112.5,194.5C 112.167,194.5 111.833,194.5 111.5,194.5C 111.5,177.5 111.5,160.5 111.5,143.5C 111.336,140.813 111.503,138.146 112,135.5C 113.78,129.706 115.613,124.039 117.5,118.5 Z"/></g>
<g><path style="opacity:1" fill="#b38421" d="M 175.5,185.5 C 162.447,188.984 149.113,189.984 135.5,188.5C 135.5,188.167 135.5,187.833 135.5,187.5C 136.167,187.5 136.833,187.5 137.5,187.5C 140.116,188.052 142.783,188.386 145.5,188.5C 155.42,186.89 165.42,185.89 175.5,185.5 Z"/></g>
</svg>
