<?xml version="1.0" encoding="UTF-8"?>
<!DOCTYPE svg PUBLIC "-//W3C//DTD SVG 1.1//EN" "http://www.w3.org/Graphics/SVG/1.1/DTD/svg11.dtd">
<svg xmlns="http://www.w3.org/2000/svg" version="1.1" width="265px" height="101px" style="shape-rendering:geometricPrecision; text-rendering:geometricPrecision; image-rendering:optimizeQuality; fill-rule:evenodd; clip-rule:evenodd" xmlns:xlink="http://www.w3.org/1999/xlink">
<g><path style="opacity:1" fill="#fefefe" d="M -0.5,-0.5 C 87.8333,-0.5 176.167,-0.5 264.5,-0.5C 264.5,33.1667 264.5,66.8333 264.5,100.5C 176.167,100.5 87.8333,100.5 -0.5,100.5C -0.5,66.8333 -0.5,33.1667 -0.5,-0.5 Z"/></g>
<g><path style="opacity:1" fill="#ff1f18" d="M 39.5,27.5 C 54.1705,27.3334 68.8371,27.5001 83.5,28C 84.9308,28.4652 86.0975,29.2986 87,30.5C 87.6667,45.8333 87.6667,61.1667 87,76.5C 86.6924,77.3081 86.1924,77.9747 85.5,78.5C 69.8779,79.6508 54.2112,79.8175 38.5,79C 38,78.5 37.5,78 37,77.5C 35.3658,62.2594 35.0325,46.9261 36,31.5C 37.3756,30.2949 38.5423,28.9616 39.5,27.5 Z"/></g>
<g><path style="opacity:1" fill="#ffeeed" d="M 63.5,43.5 C 59.5,43.5 55.5,43.5 51.5,43.5C 51.5,45.1667 51.5,46.8333 51.5,48.5C 50.5,48.5 49.5,48.5 48.5,48.5C 48.5,45.8333 48.5,43.1667 48.5,40.5C 53.5,40.5 58.5,40.5 63.5,40.5C 63.5,41.5 63.5,42.5 63.5,43.5 Z"/></g>
<g><path style="opacity:1" fill="#fff1f1" d="M 66.5,40.5 C 69.1667,40.5 71.8333,40.5 74.5,40.5C 74.5,43.1667 74.5,45.8333 74.5,48.5C 72.8762,48.6399 71.7096,47.9733 71,46.5C 65.4687,52.366 59.6353,57.866 53.5,63C 55.1341,63.4935 56.8008,63.6602 58.5,63.5C 58.5,64.5 58.5,65.5 58.5,66.5C 55.1667,66.5 51.8333,66.5 48.5,66.5C 48.3505,65.448 48.5172,64.448 49,63.5C 55.031,57.1345 61.3643,51.1345 68,45.5C 67.5134,43.9562 67.0134,42.2895 66.5,40.5 Z"/></g>
<g><path style="opacity:1" fill="#171f48" d="M 182.5,41.5 C 185.956,42.5362 186.29,44.2029 183.5,46.5C 181.296,45.218 180.962,43.5514 182.5,41.5 Z"/></g>
<g><path style="opacity:1" fill="#131c45" d="M 209.5,45.5 C 208.566,46.5676 208.232,47.901 208.5,49.5C 210.167,49.5 211.833,49.5 213.5,49.5C 212.448,51.256 210.781,51.9227 208.5,51.5C 208.5,56.1667 208.5,60.8333 208.5,65.5C 207.5,65.5 206.5,65.5 205.5,65.5C 205.5,60.8333 205.5,56.1667 205.5,51.5C 204.5,51.5 203.5,51.5 202.5,51.5C 202.5,50.5 202.5,49.5 202.5,48.5C 203.5,48.5 204.5,48.5 205.5,48.5C 205.548,42.8094 208.215,41.1427 213.5,43.5C 212.051,44.1719 210.718,44.8386 209.5,45.5 Z"/></g>
<g><path style="opacity:1" fill="#ff8885" d="M 63.5,43.5 C 60.0381,44.4816 56.3714,44.815 52.5,44.5C 52.7678,46.099 52.4345,47.4324 51.5,48.5C 51.5,46.8333 51.5,45.1667 51.5,43.5C 55.5,43.5 59.5,43.5 63.5,43.5 Z"/></g>
<g><path style="opacity:1" fill="#111b44" d="M 154.5,48.5 C 156.124,48.3601 157.29,49.0267 158,50.5C 161.534,47.7992 164.867,48.1325 168,51.5C 171.667,47.5 175.333,47.5 179,51.5C 179.499,56.1548 179.666,60.8215 179.5,65.5C 178.5,65.5 177.5,65.5 176.5,65.5C 176.666,61.4862 176.499,57.4862 176,53.5C 173.16,50.6293 170.826,50.9626 169,54.5C 168.501,58.1516 168.335,61.8183 168.5,65.5C 167.5,65.5 166.5,65.5 165.5,65.5C 165.666,61.4862 165.499,57.4862 165,53.5C 162.667,50.8333 160.333,50.8333 158,53.5C 157.501,57.4862 157.334,61.4862 157.5,65.5C 156.5,65.5 155.5,65.5 154.5,65.5C 154.5,59.8333 154.5,54.1667 154.5,48.5 Z"/></g>
<g><path style="opacity:1" fill="#101a43" d="M 193.5,48.5 C 196.505,48.253 199.005,49.253 201,51.5C 201.499,56.1548 201.666,60.8215 201.5,65.5C 200.5,65.5 199.5,65.5 198.5,65.5C 198.666,61.4862 198.499,57.4862 198,53.5C 195.667,50.8333 193.333,50.8333 191,53.5C 190.501,57.4862 190.334,61.4862 190.5,65.5C 189.5,65.5 188.5,65.5 187.5,65.5C 187.5,60.1667 187.5,54.8333 187.5,49.5C 188.822,49.33 189.989,49.6634 191,50.5C 191.995,49.9341 192.828,49.2674 193.5,48.5 Z"/></g>
<g><path style="opacity:1" fill="#858ba0" d="M 209.5,45.5 C 209.5,46.5 209.5,47.5 209.5,48.5C 211.099,48.2322 212.432,48.5655 213.5,49.5C 211.833,49.5 210.167,49.5 208.5,49.5C 208.232,47.901 208.566,46.5676 209.5,45.5 Z"/></g>
<g><path style="opacity:1" fill="#111b44" d="M 110.5,53.5 C 111.043,53.44 111.376,53.1067 111.5,52.5C 109.027,51.2031 106.693,51.2031 104.5,52.5C 103.791,53.404 102.791,53.7373 101.5,53.5C 101.5,52.1667 101.5,50.8333 101.5,49.5C 106.5,49.5 111.5,49.5 116.5,49.5C 114.16,54.6832 110.493,58.8499 105.5,62C 106.833,62.1667 108.167,62.3333 109.5,62.5C 111.924,61.9789 114.257,61.3123 116.5,60.5C 116.5,62.1667 116.5,63.8333 116.5,65.5C 111.5,65.5 106.5,65.5 101.5,65.5C 101.343,64.1266 101.51,62.7932 102,61.5C 104.729,58.6007 107.562,55.934 110.5,53.5 Z"/></g>
<g><path style="opacity:1" fill="#1e254d" d="M 123.5,48.5 C 133.077,49.0608 136.077,53.7274 132.5,62.5C 126.435,67.2402 121.602,66.2402 118,59.5C 117.176,54.4818 119.009,50.8152 123.5,48.5 Z"/></g>
<g><path style="opacity:1" fill="#161e47" d="M 141.5,48.5 C 151.998,49.6625 154.664,54.8291 149.5,64C 139.372,66.8763 135.205,63.043 137,52.5C 138.397,50.9297 139.897,49.5964 141.5,48.5 Z"/></g>
<g><path style="opacity:1" fill="#161e47" d="M 217.5,48.5 C 226.705,48.2063 230.205,52.5396 228,61.5C 221.994,67.3301 216.994,66.6635 213,59.5C 212.333,57.5 212.333,55.5 213,53.5C 214.707,51.9625 216.207,50.2959 217.5,48.5 Z"/></g>
<g><path style="opacity:1" fill="#83899e" d="M 104.5,52.5 C 106.693,51.2031 109.027,51.2031 111.5,52.5C 111.376,53.1067 111.043,53.44 110.5,53.5C 108.735,52.5386 106.735,52.2053 104.5,52.5 Z"/></g>
<g><path style="opacity:1" fill="#f7f7f8" d="M 123.5,51.5 C 129.997,51.1799 132.164,54.1799 130,60.5C 122.962,63.8128 120.295,61.4795 122,53.5C 122.717,52.9558 123.217,52.2891 123.5,51.5 Z"/></g>
<g><path style="opacity:1" fill="#f1f1f4" d="M 141.5,51.5 C 149.818,51.9869 151.485,55.4869 146.5,62C 139.999,62.8123 137.832,59.979 140,53.5C 140.717,52.9558 141.217,52.2891 141.5,51.5 Z"/></g>
<g><path style="opacity:1" fill="#f2f3f5" d="M 218.5,51.5 C 225.03,51.2435 227.197,54.2435 225,60.5C 221.661,63.2994 218.661,62.9661 216,59.5C 215.018,56.2253 215.851,53.5586 218.5,51.5 Z"/></g>
<g><path style="opacity:1" fill="#737992" d="M 182.5,49.5 C 183.209,48.596 184.209,48.2627 185.5,48.5C 185.5,54.1667 185.5,59.8333 185.5,65.5C 184.167,65.5 182.833,65.5 181.5,65.5C 181.179,59.9738 181.512,54.6405 182.5,49.5 Z"/></g>
<g><path style="opacity:1" fill="#010c39" d="M 182.5,49.5 C 183.809,51.5706 184.475,54.0706 184.5,57C 184.167,59.5 183.833,62 183.5,64.5C 182.506,59.544 182.173,54.544 182.5,49.5 Z"/></g>
<g><path style="opacity:1" fill="#fff8f8" d="M 71.5,58.5 C 72.5,58.5 73.5,58.5 74.5,58.5C 74.5,61.1667 74.5,63.8333 74.5,66.5C 70.1667,66.5 65.8333,66.5 61.5,66.5C 61.5,65.5 61.5,64.5 61.5,63.5C 64.8333,63.5 68.1667,63.5 71.5,63.5C 71.5,61.8333 71.5,60.1667 71.5,58.5 Z"/></g>
</svg>
